<?xml version="1.0" standalone="no"?><!DOCTYPE svg PUBLIC "-//W3C//DTD SVG 1.1//EN" "http://www.w3.org/Graphics/SVG/1.1/DTD/svg11.dtd"><svg t="1548300311472" class="icon" style="" viewBox="0 0 1024 1024" version="1.1" xmlns="http://www.w3.org/2000/svg" p-id="2537" xmlns:xlink="http://www.w3.org/1999/xlink" width="200" height="200"><defs><style type="text/css"></style></defs><path d="M745.984 360.96h-221.184v30.208h221.184z m-353.28 163.84a27.648 27.648 0 0 0-39.936 0 45.056 45.056 0 0 1-41.472 20.48h-11.264a45.056 45.056 0 0 1-41.472-20.48 27.648 27.648 0 0 0-40.448 0 307.2 307.2 0 0 0-40.96 65.024 19.968 19.968 0 0 0 19.968 20.48h216.576a18.432 18.432 0 0 0 16.896-20.48 129.536 129.536 0 0 0-37.888-65.024zM303.616 350.208a70.144 70.144 0 0 0-63.488 75.264 70.144 70.144 0 0 0 63.488 74.752 70.144 70.144 0 0 0 62.976-74.752 70.144 70.144 0 0 0-62.976-75.264z m221.696 134.656h220.672v-31.232h-220.672z m0 62.464h220.672v-31.232h-220.672z m0 62.464h220.672v-31.232h-220.672zM804.864 768H115.712A63.488 63.488 0 0 1 51.2 703.488V266.24A57.344 57.344 0 0 1 117.76 204.8h689.152A63.488 63.488 0 0 1 870.4 266.24v437.248A64.512 64.512 0 0 1 804.864 768z" fill="#1296db" p-id="2538"></path></svg>