<?xml version="1.0" standalone="no"?><!DOCTYPE svg PUBLIC "-//W3C//DTD SVG 1.1//EN" "http://www.w3.org/Graphics/SVG/1.1/DTD/svg11.dtd"><svg t="1548311447447" class="icon" style="" viewBox="0 0 1024 1024" version="1.1" xmlns="http://www.w3.org/2000/svg" p-id="27649" data-spm-anchor-id="a313x.7781069.0.i2" xmlns:xlink="http://www.w3.org/1999/xlink" width="200" height="200"><defs><style type="text/css"></style></defs><path d="M243.2 442.7c-2.9 14.3 5.7 48.4 59.8 48.4 33.3 0 65.4-20.3 91.5-54.2-37.2-18.1-68.1-26.9-102.7-26.9-30.1 0-45.8 18.5-48.6 32.7z m0 0" p-id="27650" fill="#1afa29"></path><path d="M729.8 433H570.7V276.1c0-39.3-31.9-71.2-71.2-71.2H271.7c-39.3 0-71.2 31.9-71.2 71.2V504c0 39.3 31.9 71.2 71.2 71.2h161v155c0 47.5 38.9 86.4 86.4 86.4H730c47.5 0 86.4-38.9 86.4-86.4V519.3c-0.2-47.5-39.1-86.3-86.6-86.3z m-277.6 31.8c-8.7-3.9-17.3-7.9-25.9-12-32.4 39.3-66.4 62.9-117.6 62.9-51.2 0-85.4-31.5-81.3-70.1 2.7-25.3 20.1-66.8 95.6-59.7 39.8 3.7 58 11.2 90.4 21.9 8.4-15.4 15.4-32.3 20.7-50.4H290.2v-14.3h71.2v-25.6h-86.8v-15.7h86.8v-36.9s0.8-5.8 7.2-5.8h35.6v42.7h92.6v15.7h-92.6v25.6h75.5c-6.9 28.3-17.5 54.2-30.7 76.9 8.3 3 27.6 9.2 48.4 15.7-18 4.7-33.8 15.1-45.2 29.1z m172.2 264.3c-14.6 0-28.6-2-41.7-5.6l-46.9 23.9 11.1-39.1c-34.7-20.8-57.3-55.1-57.3-94 0-63.4 60.4-114.9 134.8-114.9 45.8 0 86.2 19.4 110.6 49.2l-141.5 65.1-44.3-33.7 31.7 92.5 163.4-110.8c9.6 15.8 15 33.7 15 52.6-0.1 63.4-60.4 114.8-134.9 114.8z m0 0" p-id="27651" fill="#1afa29"></path></svg>