<?xml version="1.0" standalone="no"?><!DOCTYPE svg PUBLIC "-//W3C//DTD SVG 1.1//EN" "http://www.w3.org/Graphics/SVG/1.1/DTD/svg11.dtd"><svg t="1548308242525" class="icon" style="" viewBox="0 0 1331 1024" version="1.1" xmlns="http://www.w3.org/2000/svg" p-id="26167" xmlns:xlink="http://www.w3.org/1999/xlink" width="259.9609375" height="200"><defs><style type="text/css"></style></defs><path d="M 1222.4 973.619 H 102.4 c -99.2256 0 -102.4 -103.987 -102.4 -103.987 v -716.8 C 0 37.632 105.574 50.3808 105.574 50.3808 h 1120 C 1328.03 50.3808 1331.2 152.832 1331.2 152.832 v 716.8 c -2.4576 105.421 -108.8 103.987 -108.8 103.987 Z m -454.656 -257.638 h 358.4 v -51.1488 h -358.4 v 51.1488 Z m 0 -102.4 h 358.4 v -51.2 h -358.4 v 51.2 Z m 0 -102.4 h 358.4 v -51.1488 h -358.4 v 51.1488 Z M 407.552 290.406 c -56.7808 0 -102.861 55.1424 -102.861 123.136 c 0 67.9936 46.08 123.136 102.861 123.136 s 102.861 -55.1424 102.861 -123.136 c 0 -67.9936 -46.08 -123.136 -102.861 -123.136 Z m 145.152 286.464 c -30.0544 -34.2016 -65.28 0 -65.28 0 s -15.5648 32.1536 -67.4304 33.1776 h -17.6128 c -51.8144 -1.024 -67.3792 -33.1776 -67.3792 -33.1776 s -35.2768 -34.2016 -65.3312 0 c -37.2736 42.3936 -66.3552 106.752 -66.3552 106.752 c 0 32.1024 32.1536 33.1776 32.1536 33.1776 h 351.488 s 27.4944 -1.0752 27.4944 -33.1776 c 0 0 -12.9536 -64.3584 -61.7472 -106.752 Z m 573.798 -268.851 h -359.322 v 49.6128 h 359.322 v -49.6128 Z" fill="#1296db" p-id="26168"></path></svg>